<svg version="1.1" id="Layer_1" xmlns="http://www.w3.org/2000/svg" xmlns:xlink="http://www.w3.org/1999/xlink" x="0px" y="0px"
	 width="100%" viewBox="0 0 2000 2250" enable-background="new 0 0 2000 2250" xml:space="preserve">
<path fill="#000000" opacity="1.000000" stroke="none" 
	d="
M2002.000000,938.000000 
	C2002.000000,1375.919312 2002.000000,1813.838745 2002.000000,2251.878906 
	C1335.536865,2251.878906 669.073608,2251.878906 2.000000,2251.878906 
	C2.000000,1851.277466 2.000000,1450.554688 2.709221,1048.741943 
	C5.608345,1050.920166 8.153008,1054.007446 9.928148,1057.487305 
	C18.691936,1074.666992 27.483503,1091.839233 35.839287,1109.218994 
	C58.253979,1155.840576 75.059372,1204.412720 85.390465,1255.134277 
	C87.571747,1265.843506 89.421715,1276.719360 90.124374,1287.602417 
	C90.818954,1298.360229 84.475960,1303.395996 73.710159,1302.156250 
	C70.805305,1301.821777 67.952034,1301.039307 63.665359,1300.179810 
	C63.665359,1312.454956 63.578323,1324.078613 63.684452,1335.700439 
	C63.873932,1356.449951 66.372475,1376.811401 74.818108,1396.027100 
	C95.809921,1443.788452 116.806229,1491.547974 137.922089,1539.254517 
	C164.024643,1598.227295 189.441299,1657.467773 209.517578,1718.841675 
	C211.558624,1725.081177 213.760132,1731.268188 215.835968,1737.330078 
	C227.930313,1737.534424 236.068039,1743.298462 242.708527,1751.830688 
	C248.769699,1759.618530 252.237549,1768.385620 253.844254,1778.113892 
	C257.808350,1802.116089 263.916107,1825.530762 273.861176,1847.835815 
	C285.118408,1873.083984 299.830200,1895.905884 321.840332,1913.106934 
	C344.139099,1930.533813 368.911316,1941.329346 398.082275,1940.496582 
	C414.331635,1940.032471 430.654968,1940.780151 446.896484,1941.774170 
	C466.545502,1942.976807 483.265411,1951.424072 497.893616,1964.365845 
	C501.619751,1967.662354 505.436920,1970.971802 509.634735,1973.600830 
	C539.447449,1992.271606 571.949890,2001.439697 607.172668,2000.145630 
	C612.355408,1999.955200 616.557556,2000.628052 621.256165,2003.243408 
	C637.232483,2012.136108 653.561768,2020.409058 669.895935,2028.641602 
	C707.633118,2047.661621 745.221680,2066.920654 780.297058,2090.682617 
	C787.286621,2095.417725 794.980469,2094.748291 801.180115,2089.106934 
	C802.298035,2088.089844 802.487366,2086.052246 803.277283,2084.049805 
	C811.709412,2095.380615 803.303223,2105.780762 807.459167,2115.248291 
	C808.895935,2115.392578 810.217285,2115.758545 811.482422,2115.618164 
	C835.524231,2112.947998 859.525635,2109.858154 883.605469,2107.602783 
	C907.035400,2105.408447 930.520203,2103.367920 954.025818,2102.551514 
	C972.598572,2101.906494 991.239929,2103.195801 1009.849792,2103.669678 
	C1044.558472,2104.553223 1078.520752,2110.172852 1111.818604,2119.905762 
	C1116.014282,2121.132080 1119.831909,2121.744629 1124.351440,2120.178711 
	C1142.812988,2113.783447 1161.521118,2114.182617 1180.285767,2119.241455 
	C1200.753052,2124.759277 1219.136353,2134.788086 1237.035522,2145.685791 
	C1245.779175,2151.009033 1255.189331,2151.572998 1264.718750,2151.506592 
	C1272.208374,2151.454590 1275.231323,2146.952637 1273.912109,2139.426025 
	C1273.355835,2136.252441 1272.400879,2133.148926 1271.417725,2129.164307 
	C1278.884155,2126.033203 1285.648438,2122.252441 1292.905151,2120.342041 
	C1310.223633,2115.783203 1327.974365,2112.801025 1345.165161,2107.844971 
	C1358.000366,2104.144775 1366.322632,2108.888916 1373.530273,2118.490479 
	C1377.319946,2123.538818 1380.897339,2128.822510 1385.234863,2133.365723 
	C1391.105835,2139.514893 1397.610840,2145.063477 1407.814819,2144.336182 
	C1407.275757,2138.315674 1406.446167,2133.081543 1406.439575,2127.846191 
	C1406.432861,2122.572266 1407.040039,2117.270264 1407.736938,2112.028076 
	C1409.453491,2099.116211 1416.536987,2092.347900 1429.519531,2091.789062 
	C1437.484009,2091.446045 1445.486694,2092.035645 1453.473145,2092.144287 
	C1458.309692,2092.210205 1463.147949,2092.156494 1467.666626,2092.156494 
	C1467.666626,2082.906006 1467.994507,2074.929932 1467.582642,2066.992432 
	C1467.080933,2057.326660 1470.401001,2049.805664 1477.327148,2042.977417 
	C1488.691650,2031.774048 1499.139038,2019.645996 1510.361938,2008.292114 
	C1523.675903,1994.822388 1537.158691,1981.496704 1551.070068,1968.651855 
	C1556.503784,1963.634766 1562.700562,1959.043823 1570.110352,1956.875366 
	C1580.511963,1968.153320 1590.531982,1979.017578 1601.606079,1991.024536 
	C1603.207153,1982.497314 1602.933350,1975.799194 1600.742920,1969.176270 
	C1597.046753,1958.000000 1592.031372,1947.672485 1583.107300,1939.507690 
	C1577.839111,1934.687622 1572.110352,1929.947388 1570.563232,1921.725708 
	C1572.631714,1920.410767 1574.387695,1918.787354 1576.458008,1918.065186 
	C1586.186768,1914.671875 1595.967163,1911.415405 1605.794678,1908.318237 
	C1619.394775,1904.032471 1632.036133,1905.304199 1643.063965,1915.232788 
	C1643.732788,1915.834717 1644.894653,1915.889282 1645.990479,1916.689697 
	C1646.958618,1917.250244 1647.763062,1917.319580 1648.567627,1917.388794 
	C1648.126831,1916.499634 1647.686035,1915.610596 1647.010254,1914.031860 
	C1645.667969,1911.297241 1644.415649,1909.316406 1643.479614,1907.195923 
	C1639.898193,1899.082886 1641.025635,1895.250610 1648.335693,1890.370483 
	C1654.858643,1886.015747 1662.012451,1883.656006 1669.903442,1883.670410 
	C1676.567383,1883.682495 1683.236206,1883.833496 1689.894165,1883.631104 
	C1704.616699,1883.183594 1715.394043,1875.614380 1719.814453,1861.688110 
	C1722.099487,1854.488892 1723.351807,1846.860840 1724.146118,1839.329102 
	C1724.588135,1835.139160 1725.672363,1831.992554 1728.424683,1828.750000 
	C1742.398193,1812.287842 1756.307373,1795.760376 1769.821655,1778.920776 
	C1812.056885,1726.292969 1846.795410,1668.997070 1876.188843,1608.311768 
	C1893.301270,1572.981445 1908.522095,1536.883545 1922.549805,1500.254028 
	C1923.288818,1498.324097 1923.479980,1496.184326 1924.222900,1492.784058 
	C1921.230469,1494.622681 1919.485474,1495.534424 1917.914917,1496.684204 
	C1899.840942,1509.916016 1883.462891,1525.024170 1869.681030,1542.667969 
	C1860.482788,1554.443726 1852.496094,1567.157593 1843.613159,1579.190308 
	C1835.344971,1590.390137 1828.011719,1591.530640 1816.596924,1584.195190 
	C1815.897949,1583.745850 1814.982178,1583.633789 1813.731079,1583.220825 
	C1810.225342,1593.972656 1806.846802,1604.334595 1803.468262,1614.696411 
	C1802.943726,1614.544800 1802.419312,1614.393311 1801.894775,1614.241699 
	C1801.894775,1606.881348 1801.894775,1599.520996 1801.894775,1591.818604 
	C1800.662476,1592.466553 1800.049072,1592.688721 1799.552246,1593.064819 
	C1731.956787,1644.233032 1664.724854,1695.890259 1596.671753,1746.442139 
	C1540.848267,1787.909546 1483.169678,1826.777832 1424.458984,1864.069946 
	C1419.748291,1867.062256 1414.442627,1869.397827 1409.109375,1871.068359 
	C1399.493896,1874.080322 1390.543213,1872.736816 1383.871338,1864.330200 
	C1380.593140,1860.199829 1377.777588,1855.702271 1374.263428,1850.670044 
	C1371.762573,1852.683228 1369.245972,1854.729736 1366.707642,1856.748779 
	C1359.710571,1862.314087 1353.102539,1868.501099 1345.578857,1873.230591 
	C1339.303223,1877.175415 1333.596436,1874.175903 1332.455933,1866.835083 
	C1331.764526,1862.385132 1332.871948,1857.655884 1333.368164,1852.652100 
	C1333.367676,1851.725464 1333.170166,1851.198975 1332.972656,1850.672363 
	C1332.592773,1851.054565 1332.212769,1851.436768 1330.928955,1851.721924 
	C1324.083618,1851.587646 1318.064087,1852.150391 1312.216553,1851.390015 
	C1299.317017,1849.712891 1295.249512,1851.788208 1290.091187,1863.833496 
	C1288.639160,1867.223999 1286.759766,1870.431274 1285.051880,1873.770386 
	C1278.037476,1869.628052 1279.112061,1859.892700 1269.803223,1858.112427 
	C1268.209839,1867.437378 1266.677612,1876.403809 1264.975464,1886.365723 
	C1263.924805,1884.839844 1263.311035,1883.817261 1262.571289,1882.895752 
	C1258.104004,1877.329834 1256.554443,1877.011963 1251.452393,1881.337891 
	C1249.208374,1883.240479 1247.320068,1885.625854 1245.538574,1887.993896 
	C1243.477661,1890.732910 1241.712402,1893.694458 1240.332153,1895.782837 
	C1230.668335,1884.190918 1221.385498,1873.056274 1211.746338,1861.174072 
	C1210.316284,1860.044800 1209.242554,1859.662964 1208.168823,1859.281006 
	C1208.689453,1860.952637 1209.209961,1862.624146 1209.892578,1865.047607 
	C1212.956055,1873.798706 1215.837891,1881.800049 1213.166016,1891.886108 
	C1209.192505,1888.662476 1206.158569,1886.201050 1202.551147,1883.274414 
	C1201.401855,1893.135864 1200.368164,1902.005615 1199.488281,1909.556519 
	C1192.671387,1915.080566 1185.487183,1918.931274 1181.114990,1924.856934 
	C1172.089111,1937.089355 1160.216553,1941.156372 1145.893433,1941.737427 
	C1115.966309,1942.951538 1086.283569,1947.177734 1057.475708,1954.914062 
	C1040.321045,1959.520874 1024.726074,1958.572510 1007.955750,1954.336548 
	C969.022583,1944.502197 929.598450,1936.755127 889.725647,1931.718872 
	C857.186829,1927.609009 824.569397,1924.120850 791.986511,1920.360229 
	C776.514954,1918.574463 760.875549,1917.692871 745.601868,1914.847046 
	C699.212952,1906.203613 657.126282,1886.757812 617.381226,1861.848389 
	C616.682068,1861.410278 616.347229,1860.390869 615.831177,1859.626343 
	C636.005615,1847.723511 642.478516,1834.994507 634.446655,1822.093750 
	C629.442627,1832.690796 620.290161,1836.676880 609.740295,1838.572754 
	C603.211243,1839.746094 596.575439,1840.677856 590.268982,1842.628174 
	C585.030273,1844.248291 581.485474,1842.934937 577.773987,1839.346802 
	C552.173157,1814.596924 526.551575,1789.866821 500.742828,1765.334473 
	C479.772797,1745.401245 458.495697,1725.791626 437.421326,1705.967773 
	C408.587097,1678.844727 379.231689,1652.241699 351.180756,1624.329346 
	C322.650055,1595.939209 295.412842,1566.248169 267.644165,1537.093628 
	C247.703705,1516.157959 232.072617,1492.383911 221.007523,1465.654663 
	C211.220947,1442.013794 201.598282,1418.304810 191.749268,1394.690186 
	C185.909317,1380.687866 179.771194,1366.809814 173.010193,1351.119263 
	C169.633163,1354.960083 167.765701,1357.761353 165.265701,1359.779053 
	C160.762222,1363.413452 155.262863,1363.625122 151.670547,1359.717407 
	C144.561081,1351.983765 139.534561,1342.948120 139.865952,1332.075806 
	C139.970612,1328.642090 141.526291,1324.927612 143.384476,1321.943481 
	C146.766205,1316.512817 151.175568,1315.410400 157.060135,1317.964355 
	C160.003876,1319.241943 162.699066,1321.092285 166.523193,1323.259644 
	C166.073608,1318.427979 165.842300,1314.512939 165.319946,1310.637207 
	C164.346252,1303.412842 163.186264,1296.213745 162.133682,1288.999756 
	C157.635162,1258.168579 152.937225,1227.364258 148.759232,1196.489502 
	C147.082932,1184.101929 143.406006,1171.533325 147.830490,1159.064209 
	C150.928040,1150.334839 154.464386,1141.701904 158.565262,1133.401611 
	C164.755722,1120.871826 171.549576,1108.619629 173.302078,1094.471191 
	C174.484558,1084.924927 175.315033,1075.335083 176.310410,1065.765625 
	C178.368149,1045.982544 180.309921,1026.186523 182.517349,1006.420288 
	C186.819992,967.892212 191.606766,929.415100 195.540771,890.850281 
	C198.001221,866.730530 201.057007,842.761414 206.227844,819.061035 
	C223.027893,742.058167 256.543732,672.907898 304.178894,610.408508 
	C322.130676,586.854919 341.159119,564.188477 362.193939,543.302551 
	C385.096405,520.562134 407.976318,497.789551 431.311829,475.497620 
	C450.780518,456.899536 470.609375,438.652771 490.829590,420.877045 
	C502.524506,410.595947 514.585449,400.392426 527.750366,392.190430 
	C558.223511,373.205170 589.457825,355.440704 620.403137,337.214600 
	C663.659119,311.737640 706.780945,286.100403 752.655762,265.341522 
	C826.812439,231.784760 904.528442,215.963318 985.716370,216.386307 
	C998.995056,216.455475 1012.270996,217.561035 1025.546387,217.524155 
	C1032.113159,217.505920 1038.787231,216.475128 1045.217773,215.032883 
	C1060.580933,211.587265 1068.933350,201.193771 1071.851562,186.165985 
	C1074.906494,170.434982 1072.234985,154.735550 1071.933716,138.054382 
	C1056.443115,145.334320 1044.703491,139.089508 1033.637817,130.078018 
	C1031.317871,128.188675 1029.168945,126.078346 1026.775024,124.292725 
	C1020.394348,119.533501 1014.310242,114.192078 1007.391418,110.384911 
	C998.421204,105.448990 989.585083,102.513229 978.366638,107.381447 
	C956.766663,116.754692 934.141357,123.735710 912.109497,132.149521 
	C877.284546,145.448898 843.190979,160.355972 811.613586,180.432922 
	C804.734497,184.806686 798.083496,189.539215 790.048523,194.971115 
	C790.470154,190.255875 790.800964,187.340408 790.978943,184.415634 
	C791.462830,176.466049 792.254089,168.510880 792.218811,160.561050 
	C792.185669,153.100464 788.306458,149.857239 781.253906,152.141937 
	C776.091187,153.814438 771.111877,157.094254 766.989502,160.723846 
	C758.004028,168.635193 749.912476,177.563980 740.905212,185.448044 
	C731.420471,193.750031 721.505188,201.603973 711.371582,209.104691 
	C705.028687,213.799591 697.841797,215.005020 689.629395,213.228333 
	C674.798035,210.019669 659.798828,210.663315 645.309387,215.529266 
	C607.600525,228.192947 582.073425,253.818985 567.731018,290.511871 
	C565.095032,297.255676 561.732971,299.405029 554.965698,299.963501 
	C537.231995,301.426971 519.811768,298.847015 502.351410,296.868164 
	C484.379913,294.831329 467.702667,297.441071 453.856842,309.814636 
	C425.350189,335.290100 396.556244,360.483673 368.910278,386.872070 
	C339.024536,415.398315 310.346375,445.188293 281.065155,474.350342 
	C274.353241,481.034882 269.061157,488.605377 265.790131,497.460999 
	C262.337036,506.809479 259.185303,516.270691 255.985489,525.710999 
	C252.005478,537.453064 246.813614,548.570496 238.957932,558.251465 
	C222.781616,578.186523 204.424011,596.061951 185.698318,613.522156 
	C161.376221,636.200562 135.956818,657.719055 113.827141,682.679077 
	C99.881546,698.408264 87.428970,715.183228 76.986679,733.462524 
	C59.688583,763.742859 48.463341,796.345642 40.136749,830.005554 
	C28.008644,879.032776 21.610094,929.076660 14.210608,978.941711 
	C11.679149,996.001099 8.616910,1012.982178 5.730700,1029.987793 
	C5.388300,1032.005249 5.901068,1035.149414 2.000000,1034.000000 
	C2.000000,690.072388 2.000000,346.144806 2.000000,2.108599 
	C668.453918,2.108599 1334.907837,2.108599 2002.000000,2.108599 
	C2002.000000,308.722443 2002.000000,615.445312 2001.375244,923.356079 
	C1993.831177,928.165100 1988.083496,933.030640 1984.125854,939.886841 
	C1982.132812,943.339355 1980.131836,946.814880 1977.797974,950.036133 
	C1974.483276,954.610962 1970.788696,958.838074 1964.355957,958.161011 
	C1963.675293,939.200867 1963.260620,920.602844 1962.275269,902.034973 
	C1961.115356,880.172546 1960.240601,858.250854 1957.859375,836.506348 
	C1952.808472,790.383667 1946.855225,744.359985 1941.288452,698.293701 
	C1940.483154,691.629639 1938.224609,685.690979 1934.593018,679.894897 
	C1875.257446,585.191833 1816.115112,490.367645 1756.873779,395.605469 
	C1749.121216,383.204559 1742.061523,370.194153 1732.960815,358.845306 
	C1704.268311,323.064667 1670.156860,292.985260 1632.503296,266.876709 
	C1588.779053,236.558731 1541.590332,213.063263 1491.440430,195.470016 
	C1465.734009,186.451889 1439.874878,177.824539 1412.840576,173.620422 
	C1387.589355,169.693604 1362.278320,167.627197 1336.609131,169.451279 
	C1318.373047,170.747147 1299.991821,170.520844 1281.689941,170.183167 
	C1270.124878,169.969772 1261.957397,175.059769 1255.428101,183.738831 
	C1252.861572,187.150208 1250.868042,190.992691 1248.234985,195.251175 
	C1237.777832,189.157288 1226.106445,189.399734 1214.436890,189.674301 
	C1206.120605,189.869965 1197.758301,189.634796 1189.500244,190.445419 
	C1172.975464,192.067490 1159.261230,198.981766 1152.111450,214.741287 
	C1144.546387,231.416016 1147.400146,247.156235 1158.816772,261.336487 
	C1172.467285,278.291412 1189.962524,290.298553 1209.487671,299.299530 
	C1239.489014,313.130035 1271.300049,319.005524 1304.207764,319.796448 
	C1307.981079,319.887146 1312.159180,321.010651 1315.392578,322.930206 
	C1347.982056,342.277008 1381.213257,360.690765 1412.711304,381.695312 
	C1466.672974,417.679962 1519.620972,455.191467 1572.804321,492.334290 
	C1606.620972,515.951477 1640.104492,540.045898 1673.713501,563.959961 
	C1681.521240,569.515625 1690.000488,571.476624 1699.156982,568.391296 
	C1707.290405,565.650818 1715.353149,562.630615 1723.239868,559.250183 
	C1729.828369,556.426270 1736.116699,552.902283 1743.658691,549.127441 
	C1743.658691,553.985168 1743.991333,557.291992 1743.602905,560.511841 
	C1741.545776,577.565186 1743.591553,594.376648 1748.442627,610.559631 
	C1753.965088,628.982178 1761.527954,646.782898 1767.497192,665.084412 
	C1774.966064,687.984131 1789.067627,705.404846 1809.451538,717.721985 
	C1837.171997,734.472290 1848.897461,759.872437 1849.548096,791.131287 
	C1849.846802,805.476257 1847.053833,819.547241 1842.265869,833.096619 
	C1840.488525,838.126404 1840.927368,842.357056 1843.180176,847.249512 
	C1855.471680,873.942505 1869.987793,899.298035 1888.228027,922.352478 
	C1897.915894,934.596985 1907.725464,947.220825 1921.268799,955.300354 
	C1930.977295,961.092163 1934.341553,968.376221 1933.835815,979.029297 
	C1933.607300,983.843567 1934.365967,989.120117 1936.224854,993.534973 
	C1940.609619,1003.947754 1948.277710,1005.280151 1956.692505,997.807434 
	C1958.936646,995.814514 1961.123779,993.757568 1964.341797,990.809753 
	C1964.184326,994.113220 1964.174805,995.757202 1964.017944,997.387024 
	C1961.350464,1025.094849 1958.290039,1052.771729 1956.119995,1080.518311 
	C1954.770874,1097.769409 1956.113525,1115.016479 1960.042969,1132.669434 
	C1960.780762,1135.320312 1961.609131,1137.253540 1962.437378,1139.186890 
	C1962.937256,1138.962158 1963.437134,1138.737549 1963.937012,1138.512817 
	C1963.803223,1136.293213 1963.669434,1134.073608 1963.776123,1131.005249 
	C1965.228516,1117.321167 1966.491211,1104.490234 1967.642578,1091.649536 
	C1970.424194,1060.625122 1974.898193,1029.828735 1981.975098,999.514771 
	C1986.564575,979.856018 1992.670410,960.550232 1998.163940,941.105286 
	C1998.663086,939.338745 1998.512451,936.283936 2002.000000,938.000000 
M1347.013672,1109.878296 
	C1339.970459,1107.945923 1332.963501,1105.868408 1325.878540,1104.103882 
	C1259.099731,1087.472412 1191.206177,1077.500000 1122.851196,1070.365479 
	C1089.552612,1066.890015 1056.221680,1063.727295 1022.913269,1060.345337 
	C984.000122,1056.394531 945.031860,1052.888428 906.204773,1048.215088 
	C865.396362,1043.303345 824.644653,1037.770264 784.024658,1031.495239 
	C756.153259,1027.189575 728.384949,1021.863892 702.205627,1010.531860 
	C690.797974,1005.593933 680.251770,999.507385 671.302002,990.791443 
	C667.781372,987.362915 666.175049,983.489502 666.235352,978.409058 
	C666.410034,963.695374 670.577637,950.287170 678.197510,937.824463 
	C685.952148,925.141418 696.678101,915.117249 707.698792,905.471191 
	C738.118103,878.846436 773.989258,861.117249 810.314880,844.542358 
	C845.372559,828.546021 881.036377,813.858521 916.613037,799.025635 
	C941.117493,788.808960 965.161377,777.405762 991.172363,771.004395 
	C1012.769287,765.689392 1033.996948,758.882385 1055.569946,753.459473 
	C1093.568970,743.907288 1131.650024,734.662537 1169.809814,725.774597 
	C1189.861084,721.104431 1210.272949,717.804443 1229.356567,709.720215 
	C1255.151733,698.792847 1272.898315,681.261047 1277.256470,652.107056 
	C1281.548462,623.393555 1274.910889,598.661011 1253.199585,578.712341 
	C1241.833130,568.268616 1227.960693,562.794983 1212.967896,564.846313 
	C1175.994141,569.905212 1140.196533,579.909180 1105.533325,593.901611 
	C1076.810181,605.496094 1047.396240,614.729065 1016.530396,618.714355 
	C1006.680481,619.986145 996.501892,620.206665 987.065979,622.947449 
	C924.547607,641.106812 861.569153,657.817139 800.304932,680.057251 
	C744.204102,700.423035 690.085144,724.937561 640.004028,757.768311 
	C605.091736,780.655151 575.136841,808.557983 552.584229,843.946045 
	C535.537292,870.695068 522.107056,899.239014 510.814209,928.834106 
	C500.487976,955.895996 494.752075,983.336792 499.492706,1012.652588 
	C505.493805,1049.762939 523.230103,1078.435425 555.729736,1097.816406 
	C572.083191,1107.568848 589.322937,1115.338867 607.147888,1121.846802 
	C654.732056,1139.219849 704.019409,1150.151245 753.601562,1159.756714 
	C813.529175,1171.366455 873.856995,1180.544434 934.393616,1188.393066 
	C987.970276,1195.339111 1041.473511,1202.857666 1095.071777,1209.627808 
	C1147.036011,1216.191650 1199.085693,1222.077393 1251.084595,1228.369629 
	C1263.237427,1229.840210 1275.490723,1231.044312 1287.419678,1233.646240 
	C1300.379639,1236.473022 1313.022827,1240.761108 1325.789673,1244.461792 
	C1335.603882,1247.306641 1345.223022,1250.540527 1352.099243,1259.081299 
	C1350.972900,1271.108887 1344.750977,1280.889160 1337.335571,1289.984009 
	C1322.740845,1307.885132 1304.988281,1322.521484 1287.264404,1337.080566 
	C1245.253906,1371.589233 1199.944458,1401.284790 1152.877930,1428.405762 
	C1136.762207,1437.692139 1120.727661,1447.199341 1105.259277,1457.510498 
	C1082.956543,1472.377808 1059.329102,1483.982788 1033.800659,1492.343262 
	C991.194519,1506.296753 947.999207,1518.614136 907.174316,1537.688354 
	C870.695312,1554.732178 839.085510,1577.625122 814.085388,1609.541016 
	C808.065552,1617.225952 806.987793,1624.474731 809.295166,1633.436157 
	C816.762512,1662.437622 836.661682,1678.833374 863.861511,1687.809692 
	C876.535278,1691.992065 889.413330,1689.906128 902.354370,1688.464966 
	C936.149414,1684.701660 969.140747,1677.409058 1001.456665,1667.010498 
	C1055.165283,1649.728638 1105.982178,1625.828369 1155.175293,1598.474121 
	C1257.343994,1541.662354 1348.357056,1470.095581 1431.326904,1388.061157 
	C1443.858521,1375.670898 1455.249756,1362.122559 1467.853760,1349.811523 
	C1484.006714,1334.034180 1495.045654,1315.490112 1500.845947,1293.797119 
	C1505.980225,1274.595093 1510.883545,1255.460205 1508.490234,1235.105469 
	C1505.821899,1212.411255 1496.777832,1193.058838 1481.144531,1176.642334 
	C1467.882202,1162.715698 1451.715942,1152.842163 1434.790894,1144.150513 
	C1407.197754,1129.980347 1378.234375,1119.242554 1347.013672,1109.878296 
M1207.611206,1857.211670 
	C1207.180908,1857.198975 1206.750610,1857.186279 1206.320312,1857.173584 
	C1206.528687,1857.408691 1206.736938,1857.643799 1207.611206,1857.211670 
z"/>
<path fill="#76D3FB" opacity="1.000000" stroke="none" 
	d="
M2.000000,1034.875000 
	C5.901068,1035.149414 5.388300,1032.005249 5.730700,1029.987793 
	C8.616910,1012.982178 11.679149,996.001099 14.210608,978.941711 
	C21.610094,929.076660 28.008644,879.032776 40.136749,830.005554 
	C48.463341,796.345642 59.688583,763.742859 76.986679,733.462524 
	C87.428970,715.183228 99.881546,698.408264 113.827141,682.679077 
	C135.956818,657.719055 161.376221,636.200562 185.698318,613.522156 
	C204.424011,596.061951 222.781616,578.186523 238.957932,558.251465 
	C246.813614,548.570496 252.005478,537.453064 255.985489,525.710999 
	C259.185303,516.270691 262.337036,506.809479 265.790131,497.460999 
	C269.061157,488.605377 274.353241,481.034882 281.065155,474.350342 
	C310.346375,445.188293 339.024536,415.398315 368.910278,386.872070 
	C396.556244,360.483673 425.350189,335.290100 453.856842,309.814636 
	C467.702667,297.441071 484.379913,294.831329 502.351410,296.868164 
	C519.811768,298.847015 537.231995,301.426971 554.965698,299.963501 
	C561.732971,299.405029 565.095032,297.255676 567.731018,290.511871 
	C582.073425,253.818985 607.600525,228.192947 645.309387,215.529266 
	C659.798828,210.663315 674.798035,210.019669 689.629395,213.228333 
	C697.841797,215.005020 705.028687,213.799591 711.371582,209.104691 
	C721.505188,201.603973 731.420471,193.750031 740.905212,185.448044 
	C749.912476,177.563980 758.004028,168.635193 766.989502,160.723846 
	C771.111877,157.094254 776.091187,153.814438 781.253906,152.141937 
	C788.306458,149.857239 792.185669,153.100464 792.218811,160.561050 
	C792.254089,168.510880 791.462830,176.466049 790.978943,184.415634 
	C790.800964,187.340408 790.470154,190.255875 790.048523,194.971115 
	C798.083496,189.539215 804.734497,184.806686 811.613586,180.432922 
	C843.190979,160.355972 877.284546,145.448898 912.109497,132.149521 
	C934.141357,123.735710 956.766663,116.754692 978.366638,107.381447 
	C989.585083,102.513229 998.421204,105.448990 1007.391418,110.384911 
	C1014.310242,114.192078 1020.394348,119.533501 1026.775024,124.292725 
	C1029.168945,126.078346 1031.317871,128.188675 1033.637817,130.078018 
	C1044.703491,139.089508 1056.443115,145.334320 1071.933716,138.054382 
	C1072.234985,154.735550 1074.906494,170.434982 1071.851562,186.165985 
	C1068.933350,201.193771 1060.580933,211.587265 1045.217773,215.032883 
	C1038.787231,216.475128 1032.113159,217.505920 1025.546387,217.524155 
	C1012.270996,217.561035 998.995056,216.455475 985.716370,216.386307 
	C904.528442,215.963318 826.812439,231.784760 752.655762,265.341522 
	C706.780945,286.100403 663.659119,311.737640 620.403137,337.214600 
	C589.457825,355.440704 558.223511,373.205170 527.750366,392.190430 
	C514.585449,400.392426 502.524506,410.595947 490.829590,420.877045 
	C470.609375,438.652771 450.780518,456.899536 431.311829,475.497620 
	C407.976318,497.789551 385.096405,520.562134 362.193939,543.302551 
	C341.159119,564.188477 322.130676,586.854919 304.178894,610.408508 
	C256.543732,672.907898 223.027893,742.058167 206.227844,819.061035 
	C201.057007,842.761414 198.001221,866.730530 195.540771,890.850281 
	C191.606766,929.415100 186.819992,967.892212 182.517349,1006.420288 
	C180.309921,1026.186523 178.368149,1045.982544 176.310410,1065.765625 
	C175.315033,1075.335083 174.484558,1084.924927 173.302078,1094.471191 
	C171.549576,1108.619629 164.755722,1120.871826 158.565262,1133.401611 
	C154.464386,1141.701904 150.928040,1150.334839 147.830490,1159.064209 
	C143.406006,1171.533325 147.082932,1184.101929 148.759232,1196.489502 
	C152.937225,1227.364258 157.635162,1258.168579 162.133682,1288.999756 
	C163.186264,1296.213745 164.346252,1303.412842 165.319946,1310.637207 
	C165.842300,1314.512939 166.073608,1318.427979 166.523193,1323.259644 
	C162.699066,1321.092285 160.003876,1319.241943 157.060135,1317.964355 
	C151.175568,1315.410400 146.766205,1316.512817 143.384476,1321.943481 
	C141.526291,1324.927612 139.970612,1328.642090 139.865952,1332.075806 
	C139.534561,1342.948120 144.561081,1351.983765 151.670547,1359.717407 
	C155.262863,1363.625122 160.762222,1363.413452 165.265701,1359.779053 
	C167.765701,1357.761353 169.633163,1354.960083 173.010193,1351.119263 
	C179.771194,1366.809814 185.909317,1380.687866 191.749268,1394.690186 
	C201.598282,1418.304810 211.220947,1442.013794 221.007523,1465.654663 
	C232.072617,1492.383911 247.703705,1516.157959 267.644165,1537.093628 
	C295.412842,1566.248169 322.650055,1595.939209 351.180756,1624.329346 
	C379.231689,1652.241699 408.587097,1678.844727 437.421326,1705.967773 
	C458.495697,1725.791626 479.772797,1745.401245 500.742828,1765.334473 
	C526.551575,1789.866821 552.173157,1814.596924 577.773987,1839.346802 
	C581.485474,1842.934937 585.030273,1844.248291 590.268982,1842.628174 
	C596.575439,1840.677856 603.211243,1839.746094 609.740295,1838.572754 
	C620.290161,1836.676880 629.442627,1832.690796 634.446655,1822.093750 
	C642.478516,1834.994507 636.005615,1847.723511 615.831177,1859.626343 
	C616.347229,1860.390869 616.682068,1861.410278 617.381226,1861.848389 
	C657.126282,1886.757812 699.212952,1906.203613 745.601868,1914.847046 
	C760.875549,1917.692871 776.514954,1918.574463 791.986511,1920.360229 
	C824.569397,1924.120850 857.186829,1927.609009 889.725647,1931.718872 
	C929.598450,1936.755127 969.022583,1944.502197 1007.955750,1954.336548 
	C1024.726074,1958.572510 1040.321045,1959.520874 1057.475708,1954.914062 
	C1086.283569,1947.177734 1115.966309,1942.951538 1145.893433,1941.737427 
	C1160.216553,1941.156372 1172.089111,1937.089355 1181.114990,1924.856934 
	C1185.487183,1918.931274 1192.671387,1915.080566 1199.488281,1909.556519 
	C1200.368164,1902.005615 1201.401855,1893.135864 1202.551147,1883.274414 
	C1206.158569,1886.201050 1209.192505,1888.662476 1213.166016,1891.886108 
	C1215.837891,1881.800049 1212.956055,1873.798706 1210.213379,1864.576782 
	C1210.948975,1862.876465 1211.525879,1862.398926 1212.102783,1861.921509 
	C1221.385498,1873.056274 1230.668335,1884.190918 1240.332153,1895.782837 
	C1241.712402,1893.694458 1243.477661,1890.732910 1245.538574,1887.993896 
	C1247.320068,1885.625854 1249.208374,1883.240479 1251.452393,1881.337891 
	C1256.554443,1877.011963 1258.104004,1877.329834 1262.571289,1882.895752 
	C1263.311035,1883.817261 1263.924805,1884.839844 1264.975464,1886.365723 
	C1266.677612,1876.403809 1268.209839,1867.437378 1269.803223,1858.112427 
	C1279.112061,1859.892700 1278.037476,1869.628052 1285.051880,1873.770386 
	C1286.759766,1870.431274 1288.639160,1867.223999 1290.091187,1863.833496 
	C1295.249512,1851.788208 1299.317017,1849.712891 1312.216553,1851.390015 
	C1318.064087,1852.150391 1324.083618,1851.587646 1331.251343,1852.043579 
	C1332.477539,1852.462158 1333.171387,1853.052124 1333.171387,1853.052124 
	C1332.871948,1857.655884 1331.764526,1862.385132 1332.455933,1866.835083 
	C1333.596436,1874.175903 1339.303223,1877.175415 1345.578857,1873.230591 
	C1353.102539,1868.501099 1359.710571,1862.314087 1366.707642,1856.748779 
	C1369.245972,1854.729736 1371.762573,1852.683228 1374.263428,1850.670044 
	C1377.777588,1855.702271 1380.593140,1860.199829 1383.871338,1864.330200 
	C1390.543213,1872.736816 1399.493896,1874.080322 1409.109375,1871.068359 
	C1414.442627,1869.397827 1419.748291,1867.062256 1424.458984,1864.069946 
	C1483.169678,1826.777832 1540.848267,1787.909546 1596.671753,1746.442139 
	C1664.724854,1695.890259 1731.956787,1644.233032 1799.552246,1593.064819 
	C1800.049072,1592.688721 1800.662476,1592.466553 1801.894775,1591.818604 
	C1801.894775,1599.520996 1801.894775,1606.881348 1801.894775,1614.241699 
	C1802.419312,1614.393311 1802.943726,1614.544800 1803.468262,1614.696411 
	C1806.846802,1604.334595 1810.225342,1593.972656 1813.731079,1583.220825 
	C1814.982178,1583.633789 1815.897949,1583.745850 1816.596924,1584.195190 
	C1828.011719,1591.530640 1835.344971,1590.390137 1843.613159,1579.190308 
	C1852.496094,1567.157593 1860.482788,1554.443726 1869.681030,1542.667969 
	C1883.462891,1525.024170 1899.840942,1509.916016 1917.914917,1496.684204 
	C1919.485474,1495.534424 1921.230469,1494.622681 1924.222900,1492.784058 
	C1923.479980,1496.184326 1923.288818,1498.324097 1922.549805,1500.254028 
	C1908.522095,1536.883545 1893.301270,1572.981445 1876.188843,1608.311768 
	C1846.795410,1668.997070 1812.056885,1726.292969 1769.821655,1778.920776 
	C1756.307373,1795.760376 1742.398193,1812.287842 1728.424683,1828.750000 
	C1725.672363,1831.992554 1724.588135,1835.139160 1724.146118,1839.329102 
	C1723.351807,1846.860840 1722.099487,1854.488892 1719.814453,1861.688110 
	C1715.394043,1875.614380 1704.616699,1883.183594 1689.894165,1883.631104 
	C1683.236206,1883.833496 1676.567383,1883.682495 1669.903442,1883.670410 
	C1662.012451,1883.656006 1654.858643,1886.015747 1648.335693,1890.370483 
	C1641.025635,1895.250610 1639.898193,1899.082886 1643.479614,1907.195923 
	C1644.415649,1909.316406 1645.667969,1911.297241 1646.650757,1914.396484 
	C1646.293335,1915.699951 1646.060181,1915.949219 1645.827026,1916.198486 
	C1644.894653,1915.889282 1643.732788,1915.834717 1643.063965,1915.232788 
	C1632.036133,1905.304199 1619.394775,1904.032471 1605.794678,1908.318237 
	C1595.967163,1911.415405 1586.186768,1914.671875 1576.458008,1918.065186 
	C1574.387695,1918.787354 1572.631714,1920.410767 1570.563232,1921.725708 
	C1572.110352,1929.947388 1577.839111,1934.687622 1583.107300,1939.507690 
	C1592.031372,1947.672485 1597.046753,1958.000000 1600.742920,1969.176270 
	C1602.933350,1975.799194 1603.207153,1982.497314 1601.606079,1991.024536 
	C1590.531982,1979.017578 1580.511963,1968.153320 1570.110352,1956.875366 
	C1562.700562,1959.043823 1556.503784,1963.634766 1551.070068,1968.651855 
	C1537.158691,1981.496704 1523.675903,1994.822388 1510.361938,2008.292114 
	C1499.139038,2019.645996 1488.691650,2031.774048 1477.327148,2042.977417 
	C1470.401001,2049.805664 1467.080933,2057.326660 1467.582642,2066.992432 
	C1467.994507,2074.929932 1467.666626,2082.906006 1467.666626,2092.156494 
	C1463.147949,2092.156494 1458.309692,2092.210205 1453.473145,2092.144287 
	C1445.486694,2092.035645 1437.484009,2091.446045 1429.519531,2091.789062 
	C1416.536987,2092.347900 1409.453491,2099.116211 1407.736938,2112.028076 
	C1407.040039,2117.270264 1406.432861,2122.572266 1406.439575,2127.846191 
	C1406.446167,2133.081543 1407.275757,2138.315674 1407.814819,2144.336182 
	C1397.610840,2145.063477 1391.105835,2139.514893 1385.234863,2133.365723 
	C1380.897339,2128.822510 1377.319946,2123.538818 1373.530273,2118.490479 
	C1366.322632,2108.888916 1358.000366,2104.144775 1345.165161,2107.844971 
	C1327.974365,2112.801025 1310.223633,2115.783203 1292.905151,2120.342041 
	C1285.648438,2122.252441 1278.884155,2126.033203 1271.417725,2129.164307 
	C1272.400879,2133.148926 1273.355835,2136.252441 1273.912109,2139.426025 
	C1275.231323,2146.952637 1272.208374,2151.454590 1264.718750,2151.506592 
	C1255.189331,2151.572998 1245.779175,2151.009033 1237.035522,2145.685791 
	C1219.136353,2134.788086 1200.753052,2124.759277 1180.285767,2119.241455 
	C1161.521118,2114.182617 1142.812988,2113.783447 1124.351440,2120.178711 
	C1119.831909,2121.744629 1116.014282,2121.132080 1111.818604,2119.905762 
	C1078.520752,2110.172852 1044.558472,2104.553223 1009.849792,2103.669678 
	C991.239929,2103.195801 972.598572,2101.906494 954.025818,2102.551514 
	C930.520203,2103.367920 907.035400,2105.408447 883.605469,2107.602783 
	C859.525635,2109.858154 835.524231,2112.947998 811.482422,2115.618164 
	C810.217285,2115.758545 808.895935,2115.392578 807.459167,2115.248291 
	C803.303223,2105.780762 811.709412,2095.380615 803.277283,2084.049805 
	C802.487366,2086.052246 802.298035,2088.089844 801.180115,2089.106934 
	C794.980469,2094.748291 787.286621,2095.417725 780.297058,2090.682617 
	C745.221680,2066.920654 707.633118,2047.661621 669.895935,2028.641602 
	C653.561768,2020.409058 637.232483,2012.136108 621.256165,2003.243408 
	C616.557556,2000.628052 612.355408,1999.955200 607.172668,2000.145630 
	C571.949890,2001.439697 539.447449,1992.271606 509.634735,1973.600830 
	C505.436920,1970.971802 501.619751,1967.662354 497.893616,1964.365845 
	C483.265411,1951.424072 466.545502,1942.976807 446.896484,1941.774170 
	C430.654968,1940.780151 414.331635,1940.032471 398.082275,1940.496582 
	C368.911316,1941.329346 344.139099,1930.533813 321.840332,1913.106934 
	C299.830200,1895.905884 285.118408,1873.083984 273.861176,1847.835815 
	C263.916107,1825.530762 257.808350,1802.116089 253.844254,1778.113892 
	C252.237549,1768.385620 248.769699,1759.618530 242.708527,1751.830688 
	C236.068039,1743.298462 227.930313,1737.534424 215.835968,1737.330078 
	C213.760132,1731.268188 211.558624,1725.081177 209.517578,1718.841675 
	C189.441299,1657.467773 164.024643,1598.227295 137.922089,1539.254517 
	C116.806229,1491.547974 95.809921,1443.788452 74.818108,1396.027100 
	C66.372475,1376.811401 63.873932,1356.449951 63.684452,1335.700439 
	C63.578323,1324.078613 63.665359,1312.454956 63.665359,1300.179810 
	C67.952034,1301.039307 70.805305,1301.821777 73.710159,1302.156250 
	C84.475960,1303.395996 90.818954,1298.360229 90.124374,1287.602417 
	C89.421715,1276.719360 87.571747,1265.843506 85.390465,1255.134277 
	C75.059372,1204.412720 58.253979,1155.840576 35.839287,1109.218994 
	C27.483503,1091.839233 18.691936,1074.666992 9.928148,1057.487305 
	C8.153008,1054.007446 5.608345,1050.920166 2.709221,1047.825928 
	C2.000000,1043.916626 2.000000,1039.833374 2.000000,1034.875000 
M154.296585,1443.963013 
	C154.571579,1444.371582 154.846573,1444.780151 155.121597,1445.188721 
	C154.921722,1444.612793 154.721848,1444.036865 154.140884,1441.984131 
	C151.347961,1432.531616 148.720963,1423.024414 145.640442,1413.666504 
	C144.910034,1411.447754 142.339447,1407.929688 141.169739,1408.137085 
	C138.275391,1408.650146 134.887604,1410.409302 133.263336,1412.752686 
	C132.017120,1414.550659 132.097626,1418.779663 133.420471,1420.584106 
	C139.048981,1428.262085 145.317490,1435.475708 151.495911,1442.736694 
	C152.032471,1443.367188 153.618027,1443.105347 154.296585,1443.963013 
M206.596069,1480.113037 
	C206.596069,1480.113037 206.094574,1479.923340 206.094574,1479.923340 
	C206.094574,1479.923340 206.633377,1480.210571 205.887878,1478.948853 
	C198.617706,1463.734619 191.371017,1448.509155 184.066422,1433.311401 
	C180.912750,1426.750122 177.988190,1420.040283 174.298126,1413.788330 
	C171.815201,1409.581665 168.837265,1405.092163 162.795410,1404.728027 
	C162.657959,1405.981812 162.506378,1406.347168 162.608871,1406.615112 
	C162.956009,1407.523071 163.328415,1408.432983 163.805511,1409.277466 
	C171.309708,1422.562012 178.007706,1435.751099 179.024536,1451.779541 
	C179.990295,1467.002930 191.575455,1477.144165 206.596069,1480.113037 
z"/>
<path fill="#76D3FB" opacity="1.000000" stroke="none" 
	d="
M2002.000000,937.333374 
	C1998.512451,936.283936 1998.663086,939.338745 1998.163940,941.105286 
	C1992.670410,960.550232 1986.564575,979.856018 1981.975098,999.514771 
	C1974.898193,1029.828735 1970.424194,1060.625122 1967.642578,1091.649536 
	C1966.491211,1104.490234 1965.228516,1117.321167 1963.208252,1130.990234 
	C1961.644287,1131.866699 1960.888794,1131.909180 1960.133301,1131.951904 
	C1956.113525,1115.016479 1954.770874,1097.769409 1956.119995,1080.518311 
	C1958.290039,1052.771729 1961.350464,1025.094849 1964.017944,997.387024 
	C1964.174805,995.757202 1964.184326,994.113220 1964.341797,990.809753 
	C1961.123779,993.757568 1958.936646,995.814514 1956.692505,997.807434 
	C1948.277710,1005.280151 1940.609619,1003.947754 1936.224854,993.534973 
	C1934.365967,989.120117 1933.607300,983.843567 1933.835815,979.029297 
	C1934.341553,968.376221 1930.977295,961.092163 1921.268799,955.300354 
	C1907.725464,947.220825 1897.915894,934.596985 1888.228027,922.352478 
	C1869.987793,899.298035 1855.471680,873.942505 1843.180176,847.249512 
	C1840.927368,842.357056 1840.488525,838.126404 1842.265869,833.096619 
	C1847.053833,819.547241 1849.846802,805.476257 1849.548096,791.131287 
	C1848.897461,759.872437 1837.171997,734.472290 1809.451538,717.721985 
	C1789.067627,705.404846 1774.966064,687.984131 1767.497192,665.084412 
	C1761.527954,646.782898 1753.965088,628.982178 1748.442627,610.559631 
	C1743.591553,594.376648 1741.545776,577.565186 1743.602905,560.511841 
	C1743.991333,557.291992 1743.658691,553.985168 1743.658691,549.127441 
	C1736.116699,552.902283 1729.828369,556.426270 1723.239868,559.250183 
	C1715.353149,562.630615 1707.290405,565.650818 1699.156982,568.391296 
	C1690.000488,571.476624 1681.521240,569.515625 1673.713501,563.959961 
	C1640.104492,540.045898 1606.620972,515.951477 1572.804321,492.334290 
	C1519.620972,455.191467 1466.672974,417.679962 1412.711304,381.695312 
	C1381.213257,360.690765 1347.982056,342.277008 1315.392578,322.930206 
	C1312.159180,321.010651 1307.981079,319.887146 1304.207764,319.796448 
	C1271.300049,319.005524 1239.489014,313.130035 1209.487671,299.299530 
	C1189.962524,290.298553 1172.467285,278.291412 1158.816772,261.336487 
	C1147.400146,247.156235 1144.546387,231.416016 1152.111450,214.741287 
	C1159.261230,198.981766 1172.975464,192.067490 1189.500244,190.445419 
	C1197.758301,189.634796 1206.120605,189.869965 1214.436890,189.674301 
	C1226.106445,189.399734 1237.777832,189.157288 1248.234985,195.251175 
	C1250.868042,190.992691 1252.861572,187.150208 1255.428101,183.738831 
	C1261.957397,175.059769 1270.124878,169.969772 1281.689941,170.183167 
	C1299.991821,170.520844 1318.373047,170.747147 1336.609131,169.451279 
	C1362.278320,167.627197 1387.589355,169.693604 1412.840576,173.620422 
	C1439.874878,177.824539 1465.734009,186.451889 1491.440430,195.470016 
	C1541.590332,213.063263 1588.779053,236.558731 1632.503296,266.876709 
	C1670.156860,292.985260 1704.268311,323.064667 1732.960815,358.845306 
	C1742.061523,370.194153 1749.121216,383.204559 1756.873779,395.605469 
	C1816.115112,490.367645 1875.257446,585.191833 1934.593018,679.894897 
	C1938.224609,685.690979 1940.483154,691.629639 1941.288452,698.293701 
	C1946.855225,744.359985 1952.808472,790.383667 1957.859375,836.506348 
	C1960.240601,858.250854 1961.115356,880.172546 1962.275269,902.034973 
	C1963.260620,920.602844 1963.675293,939.200867 1964.355957,958.161011 
	C1970.788696,958.838074 1974.483276,954.610962 1977.797974,950.036133 
	C1980.131836,946.814880 1982.132812,943.339355 1984.125854,939.886841 
	C1988.083496,933.030640 1993.831177,928.165100 2001.375244,924.271973 
	C2002.000000,926.133362 2002.000000,928.266663 2001.404297,931.265625 
	C2001.205688,932.754150 2001.602905,933.377075 2002.000000,934.000000 
	C2002.000000,934.888916 2002.000000,935.777771 2002.000000,937.333374 
z"/>
<path fill="#000000" opacity="1.000000" stroke="none" 
	d="
M2002.000000,933.500000 
	C2001.602905,933.377075 2001.205688,932.754150 2001.404297,932.065613 
	C2002.000000,932.000000 2002.000000,933.000000 2002.000000,933.500000 
z"/>
<path fill="#76D3FB" opacity="1.000000" stroke="none" 
	d="
M1347.800537,1110.074097 
	C1378.234375,1119.242554 1407.197754,1129.980347 1434.790894,1144.150513 
	C1451.715942,1152.842163 1467.882202,1162.715698 1481.144531,1176.642334 
	C1496.777832,1193.058838 1505.821899,1212.411255 1508.490234,1235.105469 
	C1510.883545,1255.460205 1505.980225,1274.595093 1500.845947,1293.797119 
	C1495.045654,1315.490112 1484.006714,1334.034180 1467.853760,1349.811523 
	C1455.249756,1362.122559 1443.858521,1375.670898 1431.326904,1388.061157 
	C1348.357056,1470.095581 1257.343994,1541.662354 1155.175293,1598.474121 
	C1105.982178,1625.828369 1055.165283,1649.728638 1001.456665,1667.010498 
	C969.140747,1677.409058 936.149414,1684.701660 902.354370,1688.464966 
	C889.413330,1689.906128 876.535278,1691.992065 863.861511,1687.809692 
	C836.661682,1678.833374 816.762512,1662.437622 809.295166,1633.436157 
	C806.987793,1624.474731 808.065552,1617.225952 814.085388,1609.541016 
	C839.085510,1577.625122 870.695312,1554.732178 907.174316,1537.688354 
	C947.999207,1518.614136 991.194519,1506.296753 1033.800659,1492.343262 
	C1059.329102,1483.982788 1082.956543,1472.377808 1105.259277,1457.510498 
	C1120.727661,1447.199341 1136.762207,1437.692139 1152.877930,1428.405762 
	C1199.944458,1401.284790 1245.253906,1371.589233 1287.264404,1337.080566 
	C1304.988281,1322.521484 1322.740845,1307.885132 1337.335571,1289.984009 
	C1344.750977,1280.889160 1350.972900,1271.108887 1352.099243,1259.081299 
	C1345.223022,1250.540527 1335.603882,1247.306641 1325.789673,1244.461792 
	C1313.022827,1240.761108 1300.379639,1236.473022 1287.419678,1233.646240 
	C1275.490723,1231.044312 1263.237427,1229.840210 1251.084595,1228.369629 
	C1199.085693,1222.077393 1147.036011,1216.191650 1095.071777,1209.627808 
	C1041.473511,1202.857666 987.970276,1195.339111 934.393616,1188.393066 
	C873.856995,1180.544434 813.529175,1171.366455 753.601562,1159.756714 
	C704.019409,1150.151245 654.732056,1139.219849 607.147888,1121.846802 
	C589.322937,1115.338867 572.083191,1107.568848 555.729736,1097.816406 
	C523.230103,1078.435425 505.493805,1049.762939 499.492706,1012.652588 
	C494.752075,983.336792 500.487976,955.895996 510.814209,928.834106 
	C522.107056,899.239014 535.537292,870.695068 552.584229,843.946045 
	C575.136841,808.557983 605.091736,780.655151 640.004028,757.768311 
	C690.085144,724.937561 744.204102,700.423035 800.304932,680.057251 
	C861.569153,657.817139 924.547607,641.106812 987.065979,622.947449 
	C996.501892,620.206665 1006.680481,619.986145 1016.530396,618.714355 
	C1047.396240,614.729065 1076.810181,605.496094 1105.533325,593.901611 
	C1140.196533,579.909180 1175.994141,569.905212 1212.967896,564.846313 
	C1227.960693,562.794983 1241.833130,568.268616 1253.199585,578.712341 
	C1274.910889,598.661011 1281.548462,623.393555 1277.256470,652.107056 
	C1272.898315,681.261047 1255.151733,698.792847 1229.356567,709.720215 
	C1210.272949,717.804443 1189.861084,721.104431 1169.809814,725.774597 
	C1131.650024,734.662537 1093.568970,743.907288 1055.569946,753.459473 
	C1033.996948,758.882385 1012.769287,765.689392 991.172363,771.004395 
	C965.161377,777.405762 941.117493,788.808960 916.613037,799.025635 
	C881.036377,813.858521 845.372559,828.546021 810.314880,844.542358 
	C773.989258,861.117249 738.118103,878.846436 707.698792,905.471191 
	C696.678101,915.117249 685.952148,925.141418 678.197510,937.824463 
	C670.577637,950.287170 666.410034,963.695374 666.235352,978.409058 
	C666.175049,983.489502 667.781372,987.362915 671.302002,990.791443 
	C680.251770,999.507385 690.797974,1005.593933 702.205627,1010.531860 
	C728.384949,1021.863892 756.153259,1027.189575 784.024658,1031.495239 
	C824.644653,1037.770264 865.396362,1043.303345 906.204773,1048.215088 
	C945.031860,1052.888428 984.000122,1056.394531 1022.913269,1060.345337 
	C1056.221680,1063.727295 1089.552612,1066.890015 1122.851196,1070.365479 
	C1191.206177,1077.500000 1259.099731,1087.472412 1325.878540,1104.103882 
	C1332.963501,1105.868408 1339.970459,1107.945923 1347.800537,1110.074097 
z"/>
<path fill="#5AA1BF" opacity="1.000000" stroke="none" 
	d="
M1960.042969,1132.669434 
	C1960.888794,1131.909180 1961.644287,1131.866699 1962.967773,1131.839111 
	C1963.669434,1134.073608 1963.803223,1136.293213 1963.937012,1138.512817 
	C1963.437134,1138.737549 1962.937256,1138.962158 1962.437378,1139.186890 
	C1961.609131,1137.253540 1960.780762,1135.320312 1960.042969,1132.669434 
z"/>
<path fill="#5194B0" opacity="1.000000" stroke="none" 
	d="
M1211.746338,1861.174072 
	C1211.525879,1862.398926 1210.948975,1862.876465 1210.051270,1863.824951 
	C1209.209961,1862.624146 1208.689453,1860.952637 1208.168823,1859.281006 
	C1209.242554,1859.662964 1210.316284,1860.044800 1211.746338,1861.174072 
z"/>
<path fill="#76D3FB" opacity="1.000000" stroke="none" 
	d="
M1646.885986,1915.086060 
	C1647.686035,1915.610596 1648.126831,1916.499634 1648.567627,1917.388794 
	C1647.763062,1917.319580 1646.958618,1917.250244 1645.990479,1916.689697 
	C1646.060181,1915.949219 1646.293335,1915.699951 1646.885986,1915.086060 
z"/>
<path fill="#76D3FB" opacity="1.000000" stroke="none" 
	d="
M1332.155151,1852.140503 
	C1332.212769,1851.436768 1332.592773,1851.054565 1332.972656,1850.672363 
	C1333.170166,1851.198975 1333.367676,1851.725464 1333.368286,1852.652100 
	C1333.171387,1853.052124 1332.477539,1852.462158 1332.155151,1852.140503 
z"/>
<path fill="#5194B0" opacity="1.000000" stroke="none" 
	d="
M1207.278198,1857.545410 
	C1206.736938,1857.643799 1206.528687,1857.408691 1206.320312,1857.173584 
	C1206.750610,1857.186279 1207.180908,1857.198975 1207.278198,1857.545410 
z"/>
<path fill="#080E10" opacity="1.000000" stroke="none" 
	d="
M206.595566,1479.800781 
	C191.575455,1477.144165 179.990295,1467.002930 179.024536,1451.779541 
	C178.007706,1435.751099 171.309708,1422.562012 163.805511,1409.277466 
	C163.328415,1408.432983 162.956009,1407.523071 162.608871,1406.615112 
	C162.506378,1406.347168 162.657959,1405.981812 162.795410,1404.728027 
	C168.837265,1405.092163 171.815201,1409.581665 174.298126,1413.788330 
	C177.988190,1420.040283 180.912750,1426.750122 184.066422,1433.311401 
	C191.371017,1448.509155 198.617706,1463.734619 206.196213,1479.482300 
	C206.504547,1480.015747 206.595566,1479.800781 206.595566,1479.800781 
z"/>
<path fill="#080E11" opacity="1.000000" stroke="none" 
	d="
M154.716339,1443.257935 
	C153.618027,1443.105347 152.032471,1443.367188 151.495911,1442.736694 
	C145.317490,1435.475708 139.048981,1428.262085 133.420471,1420.584106 
	C132.097626,1418.779663 132.017120,1414.550659 133.263336,1412.752686 
	C134.887604,1410.409302 138.275391,1408.650146 141.169739,1408.137085 
	C142.339447,1407.929688 144.910034,1411.447754 145.640442,1413.666504 
	C148.720963,1423.024414 151.347961,1432.531616 154.374832,1442.666748 
	C154.608780,1443.349487 154.716339,1443.257935 154.716339,1443.257935 
z"/>
<path fill="#080E11" opacity="1.000000" stroke="none" 
	d="
M154.565369,1443.405273 
	C154.721848,1444.036865 154.921722,1444.612793 155.121582,1445.188721 
	C154.846573,1444.780151 154.571579,1444.371582 154.506470,1443.610474 
	C154.716339,1443.257935 154.608780,1443.349487 154.565369,1443.405273 
z"/>
<path fill="#080E10" opacity="1.000000" stroke="none" 
	d="
M206.568970,1480.113159 
	C206.633377,1480.210571 206.094574,1479.923340 206.094574,1479.923340 
	C206.094574,1479.923340 206.596069,1480.113037 206.595825,1479.956909 
	C206.595566,1479.800781 206.504547,1480.015747 206.568970,1480.113159 
z"/>
</svg>